<svg width="167" height="39" viewBox="0 0 167 39" fill="none" xmlns="http://www.w3.org/2000/svg">
<path d="M20.0523 16.5228H25.7926V27.5379C24.3187 28.6498 22.6122 29.5031 20.6729 30.0978C18.7336 30.6926 16.7811 30.9899 14.8162 30.9899C11.9978 30.9899 9.46375 30.3951 7.21417 29.2057C4.96459 27.9904 3.1934 26.3226 1.90051 24.2024C0.633528 22.0562 0 19.6386 0 16.9494C0 14.2602 0.633528 11.8555 1.90051 9.73525C3.1934 7.58907 4.97755 5.92128 7.25296 4.73187C9.52837 3.51656 12.0882 2.90894 14.9326 2.90894C17.3117 2.90894 19.4705 3.30975 21.4098 4.1113C23.3491 4.91285 24.9781 6.07642 26.2968 7.60202L22.2631 11.3255C20.3238 9.28277 17.9835 8.26138 15.2428 8.26138C13.5104 8.26138 11.9719 8.62341 10.6273 9.34739C9.28278 10.0714 8.23556 11.0927 7.48567 12.4115C6.73579 13.7302 6.36088 15.2428 6.36088 16.9494C6.36088 18.6302 6.73579 20.1298 7.48567 21.4486C8.23556 22.7673 9.26982 23.8015 10.5885 24.5514C11.9331 25.2754 13.4587 25.6374 15.1653 25.6374C16.975 25.6374 18.604 25.2496 20.0523 24.4739V16.5228ZM31.2025 9.65767H37.2531V30.5245H31.2025V9.65767ZM34.2278 6.74874C33.1162 6.74874 32.2109 6.42549 31.5127 5.77909C30.8146 5.13269 30.4655 4.33106 30.4655 3.37437C30.4655 2.41768 30.8146 1.61605 31.5127 0.969646C32.2109 0.323241 33.1162 0 34.2278 0C35.3401 0 36.2446 0.310287 36.9428 0.93086C37.6409 1.55143 37.99 2.32715 37.99 3.25801C37.99 4.26644 37.6409 5.10678 36.9428 5.77909C36.2446 6.42549 35.3401 6.74874 34.2278 6.74874ZM64.3946 9.65767V27.0337C64.3946 30.8606 63.3994 33.7049 61.4081 35.5666C59.4176 37.4283 56.5087 38.3592 52.6813 38.3592C50.6644 38.3592 48.7515 38.1135 46.941 37.6223C45.1312 37.131 43.6318 36.4199 42.4418 35.489L44.8466 31.145C45.7262 31.869 46.8378 32.4379 48.1821 32.8516C49.5272 33.2912 50.8715 33.511 52.2159 33.511C54.3103 33.511 55.8493 33.0326 56.8314 32.0759C57.8398 31.145 58.344 29.7229 58.344 27.8094V26.9174C56.767 28.6498 54.5694 29.516 51.7504 29.516C49.8375 29.516 48.079 29.1023 46.4756 28.2749C44.8985 27.4216 43.6442 26.2322 42.7133 24.7066C41.7825 23.181 41.317 21.4227 41.317 19.4317C41.317 17.4407 41.7825 15.6824 42.7133 14.1568C43.6442 12.6312 44.8985 11.4548 46.4756 10.6273C48.079 9.77403 49.8375 9.34739 51.7504 9.34739C54.7757 9.34739 57.0773 10.3429 58.6543 12.3339V9.65767H64.3946ZM52.9528 24.5514C54.5562 24.5514 55.8617 24.086 56.8702 23.1551C57.905 22.1985 58.4216 20.9573 58.4216 19.4317C58.4216 17.9061 57.905 16.6779 56.8702 15.7471C55.8617 14.7904 54.5562 14.312 52.9528 14.312C51.3502 14.312 50.0314 14.7904 48.9966 15.7471C47.9626 16.6779 47.4452 17.9061 47.4452 19.4317C47.4452 20.9573 47.9626 22.1985 48.9966 23.1551C50.0314 24.086 51.3502 24.5514 52.9528 24.5514Z" fill="#DA5454"/>
<path d="M70.4531 3.37437H76.7364V30.5245H70.4531V3.37437ZM95.4359 9.34739C98.0221 9.34739 100.103 10.1231 101.68 11.6745C103.284 13.226 104.085 15.5273 104.085 18.5784V30.5245H98.0345V19.5093C98.0345 17.8544 97.673 16.6262 96.9485 15.8246C96.2248 14.9972 95.1775 14.5835 93.8069 14.5835C92.2818 14.5835 91.0662 15.0619 90.161 16.0185C89.2565 16.9494 88.8035 18.3457 88.8035 20.2074V30.5245H82.7529V9.65767H88.532V12.1012C89.3341 11.2221 90.3293 10.5497 91.5185 10.0843C92.7084 9.59306 94.014 9.34739 95.4359 9.34739ZM131.052 1.74536V30.5245H125.273V28.1197C123.773 29.9297 121.601 30.8347 118.757 30.8347C116.791 30.8347 115.007 30.3951 113.405 29.516C111.827 28.6369 110.586 27.3828 109.681 25.7538C108.776 24.1248 108.324 22.2372 108.324 20.0911C108.324 17.9449 108.776 16.0573 109.681 14.4283C110.586 12.7993 111.827 11.5452 113.405 10.6661C115.007 9.78698 116.791 9.34739 118.757 9.34739C121.42 9.34739 123.501 10.1877 125.002 11.8685V1.74536H131.052ZM119.804 25.8702C121.329 25.8702 122.597 25.353 123.605 24.3187C124.614 23.2585 125.118 21.8494 125.118 20.0911C125.118 18.3327 124.614 16.9365 123.605 15.9022C122.597 14.842 121.329 14.312 119.804 14.312C118.253 14.312 116.973 14.842 115.964 15.9022C114.956 16.9365 114.452 18.3327 114.452 20.0911C114.452 21.8494 114.956 23.2585 115.964 24.3187C116.973 25.353 118.253 25.8702 119.804 25.8702ZM136.652 9.65767H142.703V30.5245H136.652V9.65767ZM139.677 6.74874C138.565 6.74874 137.66 6.42549 136.962 5.77909C136.264 5.13268 135.915 4.33106 135.915 3.37437C135.915 2.41768 136.264 1.61605 136.962 0.969646C137.66 0.323241 138.565 0 139.677 0C140.789 0 141.694 0.310287 142.392 0.93086C143.09 1.55143 143.44 2.32715 143.44 3.25801C143.44 4.26644 143.09 5.10678 142.392 5.77909C141.694 6.42549 140.789 6.74874 139.677 6.74874ZM156.735 9.34739C159.966 9.34739 162.448 10.1231 164.181 11.6745C165.914 13.2001 166.78 15.5143 166.78 18.6172V30.5245H161.117V27.9258C159.979 29.8651 157.859 30.8347 154.756 30.8347C153.153 30.8347 151.757 30.5632 150.568 30.0202C149.404 29.4772 148.512 28.7273 147.891 27.7707C147.271 26.814 146.961 25.728 146.961 24.5126C146.961 22.5734 147.684 21.0478 149.133 19.9359C150.606 18.8241 152.868 18.2681 155.92 18.2681H160.729C160.729 16.9494 160.328 15.941 159.527 15.2428C158.725 14.5189 157.523 14.1568 155.92 14.1568C154.808 14.1568 153.709 14.3378 152.623 14.6998C151.563 15.0359 150.658 15.5014 149.908 16.0961L147.736 11.8685C148.873 11.0669 150.231 10.4463 151.809 10.0067C153.411 9.56715 155.054 9.34739 156.735 9.34739ZM156.269 26.7622C157.303 26.7622 158.221 26.5295 159.023 26.0641C159.824 25.5728 160.393 24.8617 160.729 23.9309V21.7976H156.579C154.097 21.7976 152.856 22.6121 152.856 24.2411C152.856 25.0169 153.153 25.6374 153.748 26.1029C154.369 26.5425 155.209 26.7622 156.269 26.7622Z" fill="black"/>
</svg>
